<svg xmlns="http://www.w3.org/2000/svg" xmlns:xlink="http://www.w3.org/1999/xlink" width="1080" zoomAndPan="magnify" viewBox="0 0 810 809.999993" height="1080" preserveAspectRatio="xMidYMid meet" version="1.2"><defs><clipPath id="b1d5f0ed50"><path d="M 405 -0.464844 C 181.066406 -0.464844 -0.464844 181.066406 -0.464844 405 C -0.464844 628.933594 181.066406 810.464844 405 810.464844 C 628.933594 810.464844 810.464844 628.933594 810.464844 405 C 810.464844 181.066406 628.933594 -0.464844 405 -0.464844 Z M 405 -0.464844 "/></clipPath><clipPath id="2951b91e3a"><path d="M 10 645 L 387 645 L 387 795.855469 L 10 795.855469 Z M 10 645 "/></clipPath><clipPath id="09b22536bd"><path d="M 234 561.855469 L 400 561.855469 L 400 737 L 234 737 Z M 234 561.855469 "/></clipPath><clipPath id="fb0b0bfa71"><path d="M 423 645 L 799 645 L 799 795.855469 L 423 795.855469 Z M 423 645 "/></clipPath><clipPath id="67daf0b025"><path d="M 410 561.855469 L 576 561.855469 L 576 737 L 410 737 Z M 410 561.855469 "/></clipPath><clipPath id="d4962d235b"><path d="M 354 491 L 439 491 L 439 610 L 354 610 Z M 354 491 "/></clipPath><clipPath id="6eef3cb7f1"><path d="M 585.230469 14.007812 L 820.464844 143.453125 L 525.78125 678.976562 L 290.542969 549.535156 Z M 585.230469 14.007812 "/></clipPath><clipPath id="e71e9e5d81"><path d="M 585.230469 14.007812 L 820.464844 143.453125 L 525.78125 678.976562 L 290.542969 549.535156 Z M 585.230469 14.007812 "/></clipPath><clipPath id="63a314caaf"><path d="M 567 71 L 774 71 L 774 253 L 567 253 Z M 567 71 "/></clipPath><clipPath id="201950e763"><path d="M 585.230469 14.007812 L 820.464844 143.453125 L 525.78125 678.976562 L 290.542969 549.535156 Z M 585.230469 14.007812 "/></clipPath><clipPath id="5d8a3710e3"><path d="M 585.230469 14.007812 L 820.464844 143.453125 L 525.78125 678.976562 L 290.542969 549.535156 Z M 585.230469 14.007812 "/></clipPath><clipPath id="fd6c4cf133"><path d="M 402 295 L 549 295 L 549 497 L 402 497 Z M 402 295 "/></clipPath><clipPath id="c620dc74c2"><path d="M 585.230469 14.007812 L 820.464844 143.453125 L 525.78125 678.976562 L 290.542969 549.535156 Z M 585.230469 14.007812 "/></clipPath><clipPath id="d62fdf6133"><path d="M 585.230469 14.007812 L 820.464844 143.453125 L 525.78125 678.976562 L 290.542969 549.535156 Z M 585.230469 14.007812 "/></clipPath><clipPath id="82fd939db3"><path d="M 510 276 L 710 276 L 710 433 L 510 433 Z M 510 276 "/></clipPath><clipPath id="157ccd838a"><path d="M 585.230469 14.007812 L 820.464844 143.453125 L 525.78125 678.976562 L 290.542969 549.535156 Z M 585.230469 14.007812 "/></clipPath><clipPath id="9d297b028d"><path d="M 585.230469 14.007812 L 820.464844 143.453125 L 525.78125 678.976562 L 290.542969 549.535156 Z M 585.230469 14.007812 "/></clipPath></defs><g id="2b00674f86"><g clip-rule="nonzero" clip-path="url(#b1d5f0ed50)"><rect x="0" width="810" y="0" height="809.999993" style="fill:#eac2dd;fill-opacity:1;stroke:none;"/></g><g clip-rule="nonzero" clip-path="url(#2951b91e3a)"><path style=" stroke:none;fill-rule:nonzero;fill:#af719f;fill-opacity:1;" d="M 10.726562 645.914062 L 87.199219 795.855469 L 43.273438 676.410156 C 43.273438 676.410156 282.015625 696.472656 386.136719 795.855469 C 386.136719 795.855469 347.902344 679.410156 10.726562 645.914062 Z M 10.726562 645.914062 "/></g><path style=" stroke:none;fill-rule:nonzero;fill:#af719f;fill-opacity:1;" d="M 133.492188 590.929688 L 133.492188 645.914062 C 304.765625 667.875 399.25 765.835938 399.25 765.835938 C 330.207031 644.019531 133.492188 590.929688 133.492188 590.929688 Z M 133.492188 590.929688 "/><g clip-rule="nonzero" clip-path="url(#09b22536bd)"><path style=" stroke:none;fill-rule:nonzero;fill:#af719f;fill-opacity:1;" d="M 234.140625 561.855469 L 234.140625 610.523438 C 343.003906 654.445312 399.09375 736.605469 399.09375 736.605469 C 360.699219 623.003906 234.140625 561.855469 234.140625 561.855469 Z M 234.140625 561.855469 "/></g><g clip-rule="nonzero" clip-path="url(#fb0b0bfa71)"><path style=" stroke:none;fill-rule:nonzero;fill:#af719f;fill-opacity:1;" d="M 798.835938 645.914062 C 461.664062 679.410156 423.425781 795.855469 423.425781 795.855469 C 527.550781 696.472656 766.289062 676.410156 766.289062 676.410156 L 722.363281 795.855469 Z M 798.835938 645.914062 "/></g><path style=" stroke:none;fill-rule:nonzero;fill:#af719f;fill-opacity:1;" d="M 676.226562 590.929688 C 676.226562 590.929688 479.515625 643.859375 410.46875 765.679688 C 410.46875 765.679688 504.953125 667.71875 676.226562 645.757812 Z M 676.226562 590.929688 "/><g clip-rule="nonzero" clip-path="url(#67daf0b025)"><path style=" stroke:none;fill-rule:nonzero;fill:#af719f;fill-opacity:1;" d="M 575.421875 610.523438 L 575.421875 561.855469 C 575.421875 561.855469 448.863281 623.003906 410.46875 736.605469 C 410.46875 736.605469 466.558594 654.445312 575.421875 610.523438 Z M 575.421875 610.523438 "/></g><g clip-rule="nonzero" clip-path="url(#d4962d235b)"><g clip-rule="nonzero" clip-path="url(#6eef3cb7f1)"><g clip-rule="nonzero" clip-path="url(#e71e9e5d81)"><path style=" stroke:none;fill-rule:nonzero;fill:#af719f;fill-opacity:1;" d="M 438.734375 584.046875 C 437.5625 577.101562 434.195312 571.441406 428.417969 567.335938 C 426.828125 566.207031 425.074219 565.304688 423.21875 564.195312 C 424.78125 563.019531 426.175781 562.132812 427.371094 561.027344 C 429.234375 559.300781 431.085938 557.53125 432.714844 555.585938 C 434.949219 552.914062 435.683594 549.714844 434.84375 546.335938 C 434.1875 543.699219 433.316406 541.09375 432.324219 538.558594 C 431.46875 536.359375 430.234375 534.3125 429.296875 532.140625 C 426.859375 526.496094 427.289062 521.210938 431.140625 516.207031 C 432.796875 514.058594 434.277344 511.683594 435.367188 509.207031 C 437.347656 504.703125 437.683594 500.035156 435.46875 495.445312 C 433.796875 491.988281 430.558594 490.472656 426.863281 491.425781 C 425.992188 491.652344 425.15625 492.050781 424.328125 492.425781 C 420.640625 494.097656 417.238281 496.304688 414.417969 499.148438 C 407.488281 506.140625 400.859375 513.421875 396.03125 522.109375 C 393.820312 526.09375 391.628906 530.097656 389.5625 534.160156 C 385.828125 541.5 383.027344 549.179688 381.390625 557.273438 C 381.113281 558.636719 381.101562 560.128906 379.988281 561.570312 C 378.375 559.222656 376.636719 557.160156 373.875 557.035156 C 373.511719 556.484375 373.28125 556.195312 373.121094 555.875 C 372.875 555.386719 372.691406 554.871094 372.453125 554.378906 C 370.109375 549.570312 366.011719 547.125 361 545.972656 C 360.460938 545.847656 359.542969 545.675781 359.460938 546.957031 C 360.730469 547.980469 362.410156 548.023438 363.929688 548.523438 C 366.972656 549.53125 368.953125 551.660156 370.28125 554.796875 C 369.605469 554.617188 369.160156 554.628906 368.9375 554.414062 C 367.023438 552.5625 364.542969 551.871094 362.121094 551.121094 C 360 550.460938 357.800781 550.4375 355.695312 551.304688 C 355.007812 551.589844 354.460938 552.074219 355.019531 553.164062 C 360.757812 552.152344 366.101562 552.730469 369.585938 557.839844 C 369.222656 560.078125 368.507812 561.910156 368.765625 563.589844 C 369.054688 565.488281 370.226562 567.25 370.992188 569.027344 C 369.238281 574.347656 369.21875 577.898438 371.324219 582.300781 C 374.214844 588.339844 378.175781 593.65625 382.101562 599.027344 C 382.722656 599.875 383.621094 600.65625 384.671875 600.632812 C 385.796875 600.605469 387.132812 597.953125 387.730469 597.144531 C 390.632812 599.617188 393.058594 601.804688 395.609375 603.832031 C 407.699219 613.453125 423.089844 610.4375 431.769531 601.269531 C 434.179688 598.722656 435.652344 595.558594 437.3125 592.519531 C 438.769531 589.839844 439.230469 586.988281 438.734375 584.046875 Z M 428.847656 577.980469 C 429.421875 577.261719 430.496094 577.082031 431.160156 577.597656 C 431.84375 578.128906 432.050781 579.242188 431.589844 579.941406 C 431.007812 580.828125 429.644531 581.007812 428.847656 580.296875 C 428.21875 579.734375 428.21875 578.765625 428.847656 577.980469 Z M 421.738281 571.472656 C 422.964844 571.875 423.761719 573.921875 423.144531 575.085938 C 422.886719 575.324219 422.671875 575.664062 422.367188 575.78125 C 421.878906 575.964844 421.332031 576.085938 420.8125 576.082031 C 419.695312 576.074219 418.574219 575.835938 418.226562 574.609375 C 418.050781 574 418.089844 573.132812 418.410156 572.617188 C 419.066406 571.546875 420.664062 571.117188 421.738281 571.472656 Z M 429.957031 549.96875 C 430.011719 549.988281 430.0625 550.011719 430.109375 550.042969 C 431.195312 550.746094 430.351562 553.070312 429.023438 552.566406 C 427.664062 552.054688 428.726562 549.523438 429.957031 549.96875 Z M 424.707031 556.136719 C 425.5625 556.78125 424.316406 558.71875 423.160156 557.667969 C 423.144531 557.65625 423.128906 557.640625 423.113281 557.625 C 421.839844 556.441406 423.914062 555.539062 424.707031 556.136719 Z M 425.824219 543.449219 C 426.746094 542.371094 427.425781 542.238281 427.863281 542.570312 C 428.964844 543.414062 428.480469 547.234375 426.277344 546.234375 C 425.417969 545.847656 425.066406 544.335938 425.824219 543.449219 Z M 421.769531 547.054688 C 421.515625 547.921875 420.546875 548.710938 419.742188 548.417969 C 416.972656 547.398438 414.117188 547.898438 410.257812 547.945312 C 412.585938 545.339844 414.5625 544.207031 416.636719 543.222656 C 417.109375 542.996094 417.667969 542.929688 418.195312 542.847656 C 421.070312 542.40625 422.601562 544.214844 421.769531 547.054688 Z M 422.863281 533.386719 C 423.53125 533.917969 423.867188 535.136719 423.308594 535.675781 C 422.898438 536.066406 422.152344 536.109375 421.773438 536.234375 C 420.75 535.574219 420.546875 534.492188 421.039062 533.761719 C 421.417969 533.207031 422.386719 533.003906 422.863281 533.386719 Z M 413.816406 541.695312 C 411.265625 544.28125 408.785156 546.984375 405.949219 549.230469 C 403.480469 551.1875 400.578125 552.640625 397.816406 554.140625 C 397.746094 552.726562 398.601562 551.449219 399.417969 550.292969 C 401.675781 547.097656 403.914062 543.878906 405.710938 540.394531 C 407.054688 537.796875 408.261719 534.492188 411.179688 533.289062 C 411.953125 532.972656 414.589844 532.226562 415.277344 533.015625 C 416.832031 534.804688 416.375 536.925781 415.597656 538.976562 C 415.222656 539.96875 414.566406 540.933594 413.816406 541.695312 Z M 409.277344 531.558594 C 408.320312 527.214844 408.320312 527.214844 405.46875 524.34375 C 407.199219 521.703125 409.066406 519.816406 411.996094 519.320312 C 415.378906 518.742188 415.277344 523.101562 414.460938 525.164062 C 413.886719 526.605469 412.949219 527.988281 412.085938 529.261719 C 411.925781 529.5 409.375 531.992188 409.277344 531.558594 Z M 422.234375 526.925781 C 421.589844 527.566406 420.464844 527.703125 419.863281 527.21875 C 419.054688 526.5625 419.199219 525.277344 420.171875 524.527344 C 421.003906 523.878906 422.046875 523.878906 422.511719 524.523438 C 422.96875 525.164062 422.832031 526.332031 422.234375 526.925781 Z M 429.425781 508.121094 C 430.246094 508.4375 430.535156 509.03125 430.242188 509.800781 C 429.984375 510.480469 427.699219 512.570312 427.316406 511.066406 C 427.117188 510.269531 428.402344 507.722656 429.425781 508.121094 Z M 422.578125 515.796875 C 421.765625 517.246094 418.957031 518.3125 418.820312 516.371094 C 418.738281 515.1875 419.183594 514.222656 420.273438 513.816406 C 420.84375 513.605469 421.761719 513.625 422.195312 513.960938 C 422.90625 514.511719 422.917969 515.1875 422.578125 515.796875 Z M 428.207031 497.160156 C 428.894531 497.003906 429.734375 497.03125 430 497.859375 C 430.308594 498.796875 429.726562 499.835938 429.066406 500.644531 C 428.804688 500.96875 428.527344 501.253906 428.289062 501.484375 C 426.707031 503.015625 425.113281 504.535156 423.476562 506.007812 C 422.636719 506.761719 420.863281 507.273438 419.96875 506.394531 C 419.425781 505.867188 419.226562 505.070312 419.222656 504.308594 C 419.199219 500.257812 424.910156 497.921875 428.207031 497.160156 Z M 412.480469 509.035156 C 413.328125 508.972656 414.097656 509.742188 414.167969 510.734375 C 414.289062 512.40625 413.265625 513.804688 411.496094 513.765625 C 411.140625 513.757812 410.84375 513.648438 410.609375 513.464844 C 410.152344 513.109375 409.925781 512.488281 409.902344 511.835938 C 409.847656 510.179688 410.867188 509.15625 412.480469 509.035156 Z M 382.664062 566.402344 C 382.683594 565.035156 382.535156 564.113281 382.734375 563.28125 C 384.171875 557.273438 385.121094 551.125 387.527344 545.386719 C 389.710938 540.167969 392.214844 535.105469 396.25 531.007812 C 397.914062 529.316406 399.710938 527.738281 402.117188 527.183594 C 402.988281 526.984375 403.910156 526.925781 404.808594 526.9375 C 405.828125 526.949219 406.957031 527.992188 407.09375 528.976562 C 407.449219 531.566406 407.230469 534.125 405.9375 536.410156 C 403.257812 541.167969 400.722656 546.039062 397.613281 550.511719 C 393.777344 556.035156 389.136719 560.949219 384.375 565.714844 C 384.144531 565.945312 383.730469 565.984375 382.664062 566.402344 Z M 384.894531 569.085938 C 384.386719 568.316406 384.730469 567.714844 385.238281 567.183594 C 390.800781 561.355469 397.085938 556.414062 404.011719 552.324219 C 408.003906 549.964844 412.726562 549.078125 417.324219 549.410156 C 417.664062 549.433594 417.96875 549.503906 418.246094 549.617188 C 420.277344 550.4375 420.589844 553.402344 419.4375 555.183594 C 418.65625 556.390625 417.734375 557.546875 416.710938 558.558594 C 414.628906 560.621094 412.21875 562.292969 409.53125 563.457031 C 404.011719 565.847656 398.394531 567.960938 392.441406 569.03125 C 389.917969 569.484375 387.402344 569.769531 384.894531 569.085938 Z M 403.066406 602.402344 C 399.621094 601.222656 396.65625 598.679688 394.3125 595.949219 C 392.191406 593.480469 390.335938 590.761719 389.015625 587.773438 C 387.984375 585.445312 386.363281 581.726562 387.246094 579.15625 C 387.871094 579.289062 388.636719 579.488281 389.214844 579.789062 C 390.113281 580.265625 390.949219 580.984375 391.785156 581.5625 C 393.511719 582.761719 395.238281 583.960938 396.941406 585.191406 C 400.34375 587.640625 403.675781 590.207031 406.765625 593.046875 C 408.390625 594.542969 409.542969 596.394531 410.367188 598.441406 C 412.277344 603.167969 405.90625 603.371094 403.066406 602.402344 Z M 412.15625 588.941406 C 405.367188 586.875 398.96875 583.398438 392.839844 579.871094 C 391.621094 579.167969 390.175781 578.53125 389.214844 577.511719 C 388.40625 576.652344 388.234375 576.390625 389.128906 575.828125 C 389.816406 575.394531 390.730469 575.15625 391.484375 574.859375 C 395.347656 573.34375 399.09375 571.851562 403.234375 571.226562 C 405.578125 570.875 412.71875 570 412.339844 573.546875 C 412.296875 573.964844 412.144531 574.449219 411.871094 575 C 411.605469 575.535156 411.339844 576.097656 411.304688 576.695312 C 411.246094 577.632812 411.804688 578.121094 412.535156 578.550781 C 414.21875 579.546875 416.019531 580.375 417.519531 581.632812 C 418.75 582.660156 419.765625 584.386719 420.136719 585.933594 C 421.175781 590.253906 414.621094 589.691406 412.15625 588.941406 Z M 418.238281 597.558594 C 417.5625 597.121094 417.488281 596.050781 418.074219 595.210938 C 418.652344 594.382812 419.761719 594.117188 420.320312 594.671875 C 420.914062 595.261719 421.0625 596.507812 420.605469 597.105469 C 420.097656 597.777344 418.917969 598.003906 418.238281 597.558594 Z M 416.921875 604.242188 C 416.421875 603.386719 417.074219 602.683594 417.941406 603.140625 C 418.449219 603.402344 418.398438 604.015625 418.125 604.398438 C 417.84375 604.789062 417.328125 604.941406 416.921875 604.242188 Z M 425.582031 590.179688 C 425.566406 590.164062 425.554688 590.144531 425.539062 590.125 C 424.875 589.1875 425.613281 587.929688 426.695312 587.921875 C 427.066406 587.917969 427.683594 588.402344 427.769531 588.765625 C 428.066406 590.007812 426.457031 591.300781 425.582031 590.179688 Z M 426.894531 597.058594 C 427.027344 596.175781 428.375 596.191406 428.832031 596.703125 C 429.070312 596.96875 429.070312 597.734375 428.859375 598.054688 C 428.328125 598.851562 426.808594 597.851562 426.894531 597.058594 Z M 426.894531 597.058594 "/></g></g></g><g clip-rule="nonzero" clip-path="url(#63a314caaf)"><g clip-rule="nonzero" clip-path="url(#201950e763)"><g clip-rule="nonzero" clip-path="url(#5d8a3710e3)"><path style=" stroke:none;fill-rule:nonzero;fill:#af719f;fill-opacity:1;" d="M 575.773438 87.316406 C 576.214844 92.820312 578.597656 97.433594 581.671875 101.796875 C 582.824219 103.433594 584.105469 104.976562 585.300781 106.582031 C 590.117188 113.027344 590.621094 119.902344 587.398438 127.199219 C 586 130.363281 584.660156 133.558594 583.457031 136.800781 C 582.183594 140.226562 581.433594 143.777344 581.265625 147.464844 C 581.0625 151.953125 582.578125 155.730469 585.800781 158.75 C 589.25 161.976562 592.832031 165.066406 597.101562 167.226562 C 597.460938 167.40625 597.625 167.960938 598.039062 168.582031 C 593.1875 170.289062 589.609375 173.339844 586.628906 177.09375 C 585.164062 178.941406 584 181.027344 582.65625 182.976562 C 579.304688 187.828125 578.097656 193.1875 578.484375 199.039062 C 578.8125 203.980469 576.050781 208.390625 571.625 210.441406 C 570.96875 210.746094 570.222656 210.851562 569.554688 211.128906 C 567.988281 211.785156 567.398438 213.121094 567.933594 214.667969 C 568.789062 217.125 570.804688 218.484375 573.476562 217.980469 C 575.425781 217.613281 577.332031 216.886719 579.171875 216.113281 C 582.367188 214.773438 585.179688 215.203125 587.78125 217.476562 C 591.53125 220.746094 595.953125 222.894531 600.496094 224.769531 C 606.847656 227.394531 613.40625 228.566406 620.25 227.011719 C 626.390625 225.613281 632.003906 223.113281 636.707031 218.828125 C 639.398438 216.375 642.003906 213.824219 644.683594 211.359375 C 645.449219 210.65625 646.347656 210.09375 647.191406 209.460938 C 647.554688 209.984375 647.789062 210.265625 647.964844 210.582031 C 648.226562 211.054688 648.394531 211.597656 648.707031 212.035156 C 649.582031 213.277344 650.757812 213.527344 652 212.710938 C 652.863281 212.144531 653.65625 211.464844 654.589844 210.753906 C 655.058594 211.425781 655.453125 211.808594 655.628906 212.273438 C 656.726562 215.167969 657.828125 218.0625 658.828125 220.992188 C 660.808594 226.789062 663.984375 231.796875 668.363281 236.082031 C 671.960938 239.605469 676.191406 242.15625 680.949219 243.46875 C 686.542969 245.011719 692.253906 246.246094 698.097656 246.585938 C 704.339844 246.953125 710.363281 248.0625 715.652344 251.703125 C 717.277344 252.820312 719.433594 253.257812 721.363281 252.84375 C 722.640625 252.570312 723.851562 251.859375 724.578125 250.773438 C 726.4375 248.007812 724.171875 246.347656 722.527344 244.378906 C 721.59375 243.265625 720.691406 242.117188 719.894531 240.90625 C 718.621094 238.980469 718.277344 236.851562 719.027344 234.640625 C 719.667969 232.746094 720.40625 230.878906 721.125 229.011719 C 721.582031 227.820312 722.261719 226.683594 722.523438 225.457031 C 723.613281 220.351562 723.996094 215.03125 722.964844 209.890625 C 722.457031 207.335938 721.597656 204.859375 720.414062 202.542969 C 719.253906 200.273438 717.367188 198.359375 716.6875 195.882812 C 717.5625 195.757812 718.261719 195.632812 718.960938 195.5625 C 723.148438 195.148438 727.222656 194.203125 731.226562 192.921875 C 735.0625 191.695312 737.867188 189.355469 739.730469 185.726562 C 741.691406 181.902344 742.417969 177.808594 742.816406 173.625 C 743.140625 170.179688 743.285156 166.71875 743.554688 163.265625 C 743.917969 158.59375 745.296875 154.292969 748.789062 151.003906 C 750.363281 149.523438 752.195312 148.273438 754.050781 147.15625 C 756.230469 145.839844 758.574219 144.792969 760.832031 143.605469 C 766.015625 140.878906 769.753906 136.796875 772.265625 131.515625 C 773.230469 129.488281 773.769531 127.382812 773.730469 125.179688 C 773.625 119.203125 772.046875 116.757812 765.304688 114.9375 C 764.78125 114.792969 764.222656 114.769531 763.679688 114.730469 C 758.191406 114.339844 752.679688 114.5 747.425781 116.097656 C 740.289062 118.273438 733.167969 120.609375 726.265625 123.4375 C 711.816406 129.367188 699.097656 138.203125 686.925781 147.875 C 680.90625 152.65625 675.734375 158.28125 670.726562 164.078125 C 670.234375 164.648438 667.082031 167.582031 668.960938 165.488281 C 669.65625 162.9375 668.589844 158.507812 666.839844 157.421875 C 667.457031 155.820312 668.027344 154.082031 668.789062 152.433594 C 669.546875 150.796875 670.421875 149.203125 671.382812 147.675781 C 672.347656 146.136719 673.394531 144.628906 674.5625 143.238281 C 675.730469 141.851562 677.027344 140.554688 678.386719 139.355469 C 679.75 138.152344 681.261719 137.117188 682.710938 136.015625 C 684.101562 134.964844 685.765625 134.265625 686.988281 133.027344 C 686.246094 131.972656 685.234375 132.378906 684.210938 133.042969 C 676.105469 138.289062 669.6875 145.511719 666.292969 154.632812 C 666.058594 155.269531 665.773438 155.890625 665.445312 156.6875 C 664.195312 156.40625 663.199219 156.183594 662.261719 155.976562 C 662.269531 153.328125 662.421875 150.96875 662.246094 148.636719 C 662.050781 146.101562 661.746094 143.542969 661.128906 141.089844 C 660.550781 138.808594 659.703125 136.539062 658.601562 134.464844 C 657.414062 132.238281 655.9375 130.125 654.335938 128.164062 C 653.265625 126.851562 651.3125 123.71875 649.175781 124.398438 C 649.84375 125.972656 651.617188 127.488281 652.710938 128.828125 C 653.878906 130.265625 655.019531 131.722656 656.066406 133.253906 C 658.347656 136.597656 659.503906 140.507812 660.214844 144.464844 C 660.882812 148.1875 661.691406 151.980469 660.386719 155.425781 C 653.945312 157.574219 655.878906 166.410156 654.175781 160.378906 C 653.140625 157.261719 653.078125 156.472656 652.539062 154.75 C 651.34375 150.925781 650.332031 147.023438 648.863281 143.308594 C 644.015625 131.058594 637.417969 119.730469 630.125 108.804688 C 623.40625 98.738281 614.902344 90.238281 606.058594 82.097656 C 602.859375 79.152344 599.289062 76.539062 595.257812 74.746094 C 593.105469 73.789062 590.902344 72.804688 588.617188 72.304688 C 583.320312 71.152344 579.457031 72.804688 576.96875 78.742188 C 575.847656 81.4375 575.53125 84.3125 575.773438 87.316406 Z M 670.460938 178.226562 C 670.023438 177.921875 669.648438 177.527344 668.617188 176.628906 C 670.3125 175.890625 671.40625 175.269531 672.582031 174.925781 C 682.398438 172.054688 692.414062 170.328125 702.652344 170.226562 C 708.03125 170.175781 712.96875 172.070312 717.734375 174.390625 C 718.371094 174.699219 718.9375 175.210938 719.4375 175.722656 C 720.910156 177.25 721.089844 179.429688 719.984375 181.25 C 718.882812 183.070312 717.167969 184.089844 715.222656 184.675781 C 711.203125 185.894531 707.089844 186.523438 702.867188 186.429688 C 696.464844 186.285156 690.273438 184.894531 684.0625 183.53125 C 679.234375 182.46875 674.566406 181.085938 670.460938 178.226562 Z M 676.453125 230.617188 C 673.539062 230.53125 671.160156 229.210938 669.472656 226.957031 C 667.960938 224.9375 666.632812 222.730469 665.550781 220.453125 C 663.75 216.660156 662.558594 212.660156 662.601562 208.382812 C 662.628906 205.660156 662.527344 202.933594 662.628906 200.214844 C 662.746094 197.085938 663.570312 194.113281 665.21875 191.421875 C 665.46875 191.019531 666.007812 190.796875 666.464844 190.449219 C 666.847656 190.980469 667.242188 191.378906 667.464844 191.859375 C 670.785156 198.921875 674.140625 205.96875 677.34375 213.085938 C 678.378906 215.390625 679.105469 217.855469 679.796875 220.296875 C 680.503906 222.785156 680.269531 225.347656 679.921875 227.878906 C 679.675781 229.683594 678.382812 230.675781 676.453125 230.617188 Z M 687.636719 217.082031 C 684.421875 213.960938 681.929688 209.949219 679.46875 206.230469 C 676.824219 202.234375 674.320312 198.152344 671.699219 194.140625 C 670.335938 192.050781 668.871094 190.042969 668.519531 187.503906 C 669.085938 187.480469 669.632812 187.367188 670.144531 187.453125 C 676.054688 188.476562 682.089844 188.925781 687.808594 190.816406 C 690.566406 191.726562 693.148438 193.125 695.746094 194.402344 C 696.539062 194.789062 697.242188 195.449219 697.839844 196.117188 C 699.128906 197.550781 698.839844 199.832031 697.257812 200.914062 C 696.238281 201.609375 695.148438 202.191406 693.851562 202.964844 C 694.511719 204.304688 695.023438 205.429688 695.605469 206.515625 C 696.726562 208.59375 698.125 210.554688 698.96875 212.738281 C 699.539062 214.21875 699.804688 215.835938 699.511719 217.410156 C 699.3125 218.480469 698.515625 220.980469 697.347656 221.375 C 697.105469 221.457031 696.839844 221.441406 696.585938 221.417969 C 693.117188 221.121094 690.109375 219.488281 687.636719 217.082031 Z M 685.410156 238.429688 C 684.523438 238.890625 683.746094 238.476562 683.324219 237.5 C 683.253906 237.339844 683.238281 237.15625 683.199219 236.980469 C 683.425781 236.730469 683.609375 236.371094 683.894531 236.25 C 684.824219 235.855469 685.671875 236.214844 685.929688 237.210938 C 686.023438 237.5625 685.726562 238.265625 685.410156 238.429688 Z M 693.476562 230.960938 C 692.71875 232.066406 691.207031 232.359375 690.148438 231.605469 C 689.28125 230.988281 689.097656 229.625 689.757812 228.707031 C 690.53125 227.628906 692.027344 227.339844 693.101562 228.058594 C 693.960938 228.640625 694.136719 229.996094 693.476562 230.960938 Z M 700.03125 238.246094 C 699.292969 237.800781 699.039062 236.65625 699.507812 235.898438 C 699.964844 235.15625 701.152344 235.097656 701.636719 235.734375 C 701.734375 235.867188 701.804688 236.03125 701.832031 236.226562 C 701.980469 237.339844 701.683594 239.234375 700.03125 238.246094 Z M 716.300781 215.003906 C 716.515625 215.292969 716.925781 215.664062 717.113281 216.128906 C 717.652344 217.476562 716.769531 218.992188 715.285156 219.398438 C 713.789062 219.808594 712.296875 218.964844 712.03125 217.519531 C 711.96875 217.183594 711.953125 216.785156 712.078125 216.480469 C 712.65625 215.085938 714.769531 214.300781 716.300781 215.003906 Z M 705.347656 224.832031 C 706.175781 225.136719 706.65625 226.21875 706.324219 227.027344 C 705.839844 228.203125 704.246094 228.863281 703.238281 228.121094 C 702.769531 227.78125 702.402344 226.910156 702.464844 226.324219 C 702.585938 225.101562 704.152344 224.386719 705.347656 224.832031 Z M 710.210938 207.632812 C 709.214844 208.578125 708.074219 208.886719 706.765625 208.394531 C 706.597656 208.332031 706.441406 208.246094 705.863281 207.980469 C 705.558594 207.640625 704.859375 207.0625 704.410156 206.328125 C 703.046875 204.09375 704.066406 202.046875 706.6875 201.632812 C 709.210938 201.230469 712.351562 205.601562 710.210938 207.632812 Z M 732.4375 160.351562 C 733.023438 159.632812 734.207031 159.445312 734.839844 159.972656 C 736.152344 161.070312 735.648438 164.074219 733.625 163.863281 C 733.53125 163.855469 733.441406 163.835938 733.355469 163.808594 C 732.113281 163.414062 731.664062 161.300781 732.4375 160.351562 Z M 736.238281 152.066406 C 735.761719 151.523438 735.527344 150.761719 735.824219 150.0625 C 736.445312 148.582031 738.808594 148.132812 739.945312 149.070312 C 740.707031 149.695312 740.910156 151.238281 740.332031 151.992188 C 739.609375 152.933594 738.390625 153.054688 737.308594 152.761719 C 736.90625 152.652344 736.527344 152.402344 736.238281 152.066406 Z M 720.261719 188.484375 C 719.960938 187.433594 720.785156 186.78125 721.726562 186.8125 C 723.078125 186.855469 723.308594 187.546875 723.03125 188.214844 C 722.578125 189.300781 720.785156 190.332031 720.261719 188.484375 Z M 732.839844 184.09375 C 733.214844 184.53125 733.355469 185.113281 733.214844 185.621094 C 733.132812 185.914062 732.957031 186.179688 732.679688 186.378906 C 731.996094 186.859375 731.070312 187.03125 730.410156 186.425781 C 729.824219 185.890625 729.75 185.21875 730.164062 184.574219 C 730.773438 183.625 732.179688 183.328125 732.839844 184.09375 Z M 735.011719 175.378906 C 734.292969 176.320312 732.917969 176.636719 732.335938 175.941406 C 731.835938 175.347656 731.917969 174.664062 732.398438 174.082031 C 733 173.347656 733.996094 173.140625 734.691406 173.542969 C 735.222656 173.859375 735.402344 174.871094 735.011719 175.378906 Z M 759.816406 137.246094 C 758.832031 138.539062 757.570312 139.527344 755.8125 139.554688 C 755.359375 139.5625 754.808594 139.234375 754.457031 138.898438 C 753.980469 138.4375 754.160156 137.308594 754.753906 137.015625 C 755.871094 136.46875 757.007812 135.859375 758.203125 135.59375 C 759.1875 135.375 759.882812 136.011719 759.816406 137.246094 Z M 754.742188 121.917969 C 757.777344 121.835938 760.835938 122.113281 763.867188 122.417969 C 764.914062 122.519531 765.886719 123.1875 765.933594 124.972656 C 761.921875 128.007812 755.484375 130.0625 751.277344 129.703125 C 749.375 129.539062 748.15625 127.328125 749.160156 125.699219 C 750.445312 123.625 752.246094 121.988281 754.742188 121.917969 Z M 744.472656 136.4375 C 746.246094 136.113281 747.542969 137.699219 747.179688 139.179688 C 747.085938 139.566406 746.878906 139.949219 746.53125 140.285156 C 745.464844 141.332031 743.246094 141.820312 741.980469 140.953125 C 739.511719 139.257812 742.578125 136.785156 744.472656 136.4375 Z M 725.882812 169.488281 C 727.578125 170.976562 727.542969 172.765625 726.101562 174.46875 C 725.441406 175.246094 724.507812 175.785156 723.632812 176.480469 C 721.566406 174.90625 719.832031 173.3125 717.839844 172.152344 C 716 171.078125 713.890625 170.46875 710.867188 169.234375 C 715.035156 167.785156 722.195312 166.253906 725.882812 169.488281 Z M 726.726562 158.460938 C 725.550781 160.757812 723.988281 162.796875 721.402344 163.671875 C 718.984375 164.488281 716.546875 165.25 714.097656 165.953125 C 711.820312 166.605469 709.515625 167.152344 707.222656 167.746094 C 706.695312 167.882812 706.167969 168.132812 705.636719 168.140625 C 701.507812 168.191406 697.375 168.199219 693.246094 168.214844 C 693.53125 167.335938 694.308594 166.980469 695.074219 166.585938 C 699.285156 164.421875 703.542969 162.339844 707.683594 160.039062 C 710.382812 158.542969 713.054688 156.914062 715.472656 155.003906 C 718.378906 152.714844 721.382812 152.460938 724.6875 153.609375 C 726.808594 154.34375 727.761719 156.4375 726.726562 158.460938 Z M 734.554688 127.335938 C 735.394531 126.707031 736.371094 126.171875 737.371094 125.875 C 738.234375 125.621094 739.328125 125.828125 739.730469 126.734375 C 740.0625 127.46875 739.9375 128.410156 739.972656 128.828125 C 739.15625 130.492188 738.21875 131.277344 736.890625 131.570312 C 735.847656 131.800781 734.683594 131.269531 734.121094 130.296875 C 733.566406 129.335938 733.660156 128.007812 734.554688 127.335938 Z M 731.339844 137.378906 C 733.40625 137.84375 734.667969 140.015625 733.796875 141.9375 C 733.214844 143.21875 732.46875 144.597656 731.410156 145.460938 C 728.609375 147.746094 725.398438 149.351562 721.800781 150.039062 C 721.644531 150.066406 721.464844 149.9375 721.292969 149.878906 C 722.644531 143.863281 722.644531 143.863281 721.1875 139.433594 C 724.28125 137.363281 727.628906 136.546875 731.339844 137.378906 Z M 669.785156 170.488281 C 674.039062 165.769531 678.210938 160.972656 682.632812 156.414062 C 687.992188 150.882812 694.503906 146.875 701.195312 143.179688 C 704.078125 141.589844 707.261719 140.796875 710.5 140.21875 C 713.085938 139.753906 715.5625 140.226562 717.988281 141.046875 C 720.050781 141.75 721.09375 143.882812 720.175781 145.882812 C 719.433594 147.507812 718.445312 149.078125 717.289062 150.441406 C 715.285156 152.804688 712.84375 154.695312 710.171875 156.300781 C 699.539062 162.6875 688.394531 167.925781 676.441406 171.34375 C 674.027344 172.035156 671.632812 172.796875 668.960938 173.605469 C 668.609375 171.898438 669.195312 171.144531 669.785156 170.488281 Z M 597.261719 118.902344 C 597.148438 118.785156 597.050781 118.652344 596.980469 118.503906 C 596.375 117.203125 595.828125 115.707031 597.46875 114.90625 C 598.613281 114.34375 599.554688 115.089844 600.3125 115.890625 C 600.949219 116.566406 601.277344 117.410156 600.921875 118.371094 C 600.449219 119.65625 598.199219 119.828125 597.261719 118.902344 Z M 595.507812 129.375 C 595.527344 128.042969 596.234375 127.128906 597.171875 127 C 597.292969 126.980469 597.410156 126.984375 597.53125 126.996094 C 597.769531 127.023438 598.003906 127.113281 598.222656 127.246094 C 598.4375 127.378906 598.632812 127.554688 598.800781 127.761719 C 598.804688 127.765625 598.808594 127.769531 598.8125 127.773438 C 598.859375 127.832031 598.898438 127.902344 598.941406 127.964844 C 598.972656 128.019531 599.011719 128.066406 599.042969 128.121094 C 599.066406 128.160156 599.082031 128.210938 599.101562 128.253906 C 599.144531 128.335938 599.183594 128.417969 599.214844 128.503906 C 599.261719 128.636719 599.296875 128.777344 599.320312 128.921875 C 599.492188 130.027344 598.914062 130.828125 597.550781 131.121094 C 597.425781 131.148438 597.296875 131.148438 597.164062 131.140625 C 597.132812 131.140625 597.105469 131.144531 597.074219 131.144531 C 596.859375 131.140625 596.664062 131.085938 596.488281 131.011719 C 596.328125 130.972656 596.164062 130.933594 596 130.90625 C 595.953125 130.765625 595.894531 130.625 595.839844 130.488281 C 595.621094 130.183594 595.503906 129.792969 595.507812 129.375 Z M 590.90625 142.390625 C 590.3125 141.683594 590.042969 140.898438 590.460938 140.007812 C 590.695312 139.503906 591.886719 139.308594 592.324219 139.710938 C 593.164062 140.476562 593.5 141.40625 593.117188 142.53125 C 592.332031 143.242188 591.59375 143.210938 590.90625 142.390625 Z M 589.652344 153.261719 C 589.625 153.277344 589.59375 153.296875 589.5625 153.3125 C 589.371094 153.394531 589.191406 153.425781 589.023438 153.429688 C 589 153.429688 588.980469 153.421875 588.957031 153.421875 C 588.820312 153.417969 588.691406 153.390625 588.574219 153.347656 C 588.5 153.320312 588.433594 153.28125 588.363281 153.242188 C 588.332031 153.222656 588.296875 153.203125 588.265625 153.175781 C 588.058594 153.03125 587.875 152.847656 587.765625 152.597656 C 587.710938 152.476562 587.667969 152.335938 587.625 152.191406 C 587.5625 152.003906 587.523438 151.8125 587.507812 151.621094 C 587.5 151.570312 587.503906 151.527344 587.5 151.480469 C 587.496094 151.40625 587.484375 151.328125 587.488281 151.253906 C 587.492188 151.234375 587.496094 151.214844 587.5 151.195312 C 587.503906 151.109375 587.519531 151.03125 587.535156 150.953125 C 587.539062 150.9375 587.542969 150.921875 587.550781 150.902344 C 587.574219 150.816406 587.585938 150.71875 587.625 150.644531 C 587.65625 150.585938 587.699219 150.535156 587.746094 150.488281 C 588.007812 150.113281 588.433594 149.902344 588.929688 149.972656 C 589.019531 149.945312 589.101562 149.914062 589.171875 149.882812 C 590.265625 150.597656 590.859375 151.292969 590.578125 152.285156 C 590.546875 152.386719 590.496094 152.492188 590.429688 152.59375 C 590.246094 152.871094 589.941406 153.113281 589.652344 153.261719 Z M 598.550781 142.066406 C 598.546875 141.585938 598.632812 141.1875 598.796875 140.851562 C 599.292969 139.820312 600.484375 139.398438 601.800781 139.125 C 603.039062 138.871094 604.304688 139.035156 605.46875 139.511719 C 608.628906 140.804688 611.601562 142.488281 614.273438 144.660156 C 613.433594 145.808594 612.503906 145.605469 611.609375 145.539062 C 609.730469 145.394531 607.832031 145.25 605.953125 145.445312 C 605.027344 145.542969 604.109375 145.71875 603.230469 146.015625 C 602.65625 146.207031 602.171875 146.617188 601.589844 146.765625 C 599.5 147.296875 598.570312 143.496094 598.550781 142.066406 Z M 608.363281 125.921875 C 611.058594 125.691406 613.335938 126.617188 615.082031 128.066406 C 617.828125 132.492188 620.332031 136.671875 622.980469 140.757812 C 625.597656 144.792969 628.765625 148.449219 631.910156 153.050781 C 631.519531 152.480469 630.335938 152.386719 629.738281 152.148438 C 628.605469 151.695312 627.5 151.09375 626.410156 150.546875 C 622.988281 148.832031 619.632812 147.003906 616.660156 144.585938 C 614.105469 142.503906 611.527344 140.234375 609.21875 137.882812 C 607.316406 135.941406 605.683594 133.582031 605.300781 130.890625 C 604.992188 128.6875 605.890625 126.132812 608.363281 125.921875 Z M 596.429688 159.0625 C 596.011719 159.351562 595.585938 159.347656 595.210938 159.171875 C 594.789062 158.972656 594.429688 158.558594 594.210938 158.105469 C 593.550781 156.726562 595.53125 156.132812 596.46875 156.765625 C 597.285156 157.316406 597.210938 158.527344 596.429688 159.0625 Z M 601.75 155.082031 C 600.3125 151.65625 601.734375 148.8125 605.335938 148.113281 C 606.390625 147.910156 607.5 147.859375 608.578125 147.898438 C 614.640625 148.113281 620.40625 149.375 625.683594 152.570312 C 632.980469 156.996094 639.960938 161.84375 646.324219 167.542969 C 647.523438 168.617188 648.605469 169.820312 650.054688 171.277344 C 648.890625 171.753906 648.132812 172.214844 647.316406 172.371094 C 644.4375 172.929688 641.542969 172.761719 638.660156 172.320312 C 632.007812 171.3125 625.546875 169.492188 619.1875 167.386719 C 614.347656 165.78125 610.023438 163.011719 605.914062 160.015625 C 604.175781 158.75 602.628906 157.164062 601.75 155.082031 Z M 588.765625 190.308594 C 587.613281 189.667969 587.234375 187.765625 588.015625 186.5625 C 588.601562 185.660156 589.921875 185.289062 590.800781 185.773438 C 592.234375 186.570312 593.023438 188.828125 592.210938 189.816406 C 591.554688 190.613281 589.773438 190.867188 588.765625 190.308594 Z M 598.929688 179.226562 C 599.710938 177.582031 601.8125 176.621094 603.433594 177.171875 C 605.261719 177.796875 606.417969 179.867188 605.789062 181.402344 C 605.097656 183.101562 602.628906 184.238281 600.839844 183.683594 C 599.246094 183.191406 598.207031 180.757812 598.929688 179.226562 Z M 594.625 202.980469 C 593.667969 202.441406 593.132812 201.3125 593.535156 200.300781 C 593.695312 199.902344 594.238281 199.457031 594.65625 199.394531 C 596.109375 199.1875 597.425781 200.621094 597.160156 201.992188 C 596.96875 203 595.601562 203.53125 594.625 202.980469 Z M 592.921875 213.285156 C 592.554688 212.824219 592.339844 211.980469 592.496094 211.429688 C 592.746094 210.535156 594.347656 210.34375 595.441406 211.179688 C 595.476562 211.589844 595.734375 212.292969 595.554688 212.863281 C 595.273438 213.761719 593.535156 214.054688 592.921875 213.285156 Z M 604.4375 211.980469 C 603.144531 211.230469 602.878906 209.460938 603.867188 208.199219 C 604.378906 207.546875 605.453125 207.460938 606.34375 208.003906 C 607.609375 208.769531 607.984375 210.078125 607.269531 211.238281 C 606.648438 212.246094 605.441406 212.5625 604.4375 211.980469 Z M 607.574219 221.15625 C 606.914062 220.894531 606.492188 220.066406 606.746094 219.511719 C 607.070312 218.808594 608.171875 218.34375 608.941406 218.59375 C 609.492188 218.769531 609.910156 219.734375 609.695312 220.320312 C 609.386719 221.148438 608.480469 221.507812 607.574219 221.15625 Z M 643.4375 186.828125 C 643.957031 186.421875 644.664062 186.261719 645.570312 185.863281 C 646.265625 189.414062 646.464844 192.722656 645.183594 195.769531 C 642.851562 201.308594 640.347656 206.847656 635.78125 210.984375 C 635.324219 211.398438 634.847656 211.796875 634.371094 212.1875 C 632.832031 213.585938 631.132812 214.867188 629.234375 216.007812 C 629.164062 216.046875 629.09375 216.082031 629.027344 216.125 C 628.8125 216.269531 628.597656 216.414062 628.386719 216.558594 C 626.980469 217.496094 625.390625 218.0625 623.714844 218.207031 C 622.300781 218.402344 620.5 218.214844 619.097656 217.550781 C 619.066406 217.539062 619.035156 217.53125 619.003906 217.519531 C 617.25 216.835938 616.578125 215.332031 617.011719 213.550781 C 617.21875 212.710938 617.484375 211.902344 617.789062 211.117188 C 617.828125 211.011719 617.863281 210.898438 617.90625 210.792969 C 618.265625 209.914062 618.6875 209.070312 619.171875 208.265625 C 619.171875 208.261719 619.171875 208.261719 619.171875 208.261719 C 619.253906 208.125 619.347656 208 619.429688 207.867188 C 620.027344 206.929688 620.710938 206.046875 621.480469 205.21875 C 621.90625 204.757812 622.351562 204.308594 622.832031 203.878906 C 625.960938 201.097656 629.078125 198.300781 632.304688 195.632812 C 635.953125 192.617188 639.699219 189.726562 643.4375 186.828125 Z M 641.292969 185.355469 C 634.550781 189.339844 627.765625 193.25 621.101562 197.359375 C 616.53125 200.179688 611.539062 201.25 606.210938 200.691406 C 605.550781 200.621094 604.867188 200.519531 604.3125 200.148438 C 604.242188 200.101562 604.175781 200.050781 604.113281 200 C 601.929688 198.175781 604.265625 193.339844 605.734375 191.851562 C 607.253906 190.316406 609.097656 189.085938 610.867188 187.820312 C 612.179688 186.882812 613.613281 186.105469 615.195312 185.132812 C 614.851562 184.128906 614.640625 183.292969 614.28125 182.53125 C 613.972656 181.882812 613.410156 181.355469 613.105469 180.710938 C 612.433594 179.300781 612.878906 177.726562 614.3125 176.953125 C 615.40625 176.363281 616.648438 175.765625 617.84375 175.726562 C 620.375 175.636719 622.941406 175.75 625.457031 176.066406 C 631.625 176.84375 637.460938 178.960938 643.359375 180.796875 C 643.980469 180.992188 644.476562 181.578125 645.039062 181.992188 C 644.085938 183.710938 642.6875 184.527344 641.292969 185.355469 Z M 620.722656 117.421875 C 622.5625 117.4375 624.308594 117.804688 625.976562 118.640625 C 629.796875 120.554688 632.945312 123.246094 635.398438 126.714844 C 641.09375 134.765625 646.035156 143.191406 648.273438 152.96875 C 649.042969 156.328125 650.167969 159.609375 651.105469 162.933594 C 651.59375 164.667969 652.203125 166.394531 651.777344 168.457031 C 651.074219 168.441406 650.84375 168.507812 650.742188 168.425781 C 639.824219 159.007812 630.230469 148.414062 622.367188 136.292969 C 620.179688 132.921875 618.144531 129.472656 617.335938 125.484375 C 617.015625 123.90625 616.882812 122.238281 617.003906 120.636719 C 617.15625 118.59375 618.695312 117.402344 620.722656 117.421875 Z M 615.195312 109.207031 C 616.472656 110.117188 617.402344 111.519531 618.46875 112.679688 C 614.804688 116.828125 614.804688 116.828125 613.789062 122.660156 C 613.679688 123.277344 612.316406 121.980469 612.226562 121.878906 C 611.554688 121.121094 610.898438 120.355469 610.261719 119.570312 C 608.167969 116.984375 605.472656 113.984375 605.558594 110.433594 C 605.585938 109.304688 605.9375 108.148438 606.710938 107.324219 C 609.03125 104.867188 613.109375 107.726562 615.195312 109.207031 Z M 607.222656 95.054688 C 607.4375 94.804688 607.800781 94.617188 608.128906 94.53125 C 609.328125 94.222656 610.316406 94.789062 611.035156 95.613281 C 612.023438 96.742188 612.519531 98.105469 611.960938 99.796875 C 611.605469 100.023438 611.199219 100.4375 610.710938 100.578125 C 609.113281 101.050781 607.84375 100.5 607.003906 99.09375 C 606.148438 97.660156 606.203125 96.238281 607.222656 95.054688 Z M 595.792969 101.382812 C 596.480469 101.046875 597.183594 100.976562 597.84375 101.105469 C 599.671875 101.46875 601.140625 103.382812 600.863281 105.425781 C 600.8125 105.804688 600.160156 106.339844 599.742188 106.382812 C 597.707031 106.589844 596.28125 105.601562 595.355469 103.828125 C 594.941406 103.035156 595.085938 101.730469 595.792969 101.382812 Z M 586.015625 98.117188 C 584.769531 96.875 584.816406 95.460938 584.773438 93.84375 C 585.820312 94.214844 586.550781 94.3125 587.082031 94.6875 C 588.050781 95.378906 589.445312 96.5 589.320312 97.855469 C 589.152344 99.722656 586.90625 99.003906 586.015625 98.117188 Z M 586.824219 79.992188 C 587.929688 79.96875 589.121094 80.335938 590.15625 80.683594 C 594.359375 82.097656 599.121094 84.371094 599.402344 89.324219 C 599.492188 90.921875 598.191406 92.429688 596.546875 92.292969 C 593.261719 92.027344 590.484375 89.238281 588.371094 86.953125 C 587.875 86.417969 583.851562 80.480469 583.949219 80.464844 C 584.894531 80.335938 585.867188 80.011719 586.824219 79.992188 Z M 586.824219 79.992188 "/></g></g></g><g clip-rule="nonzero" clip-path="url(#fd6c4cf133)"><g clip-rule="nonzero" clip-path="url(#c620dc74c2)"><g clip-rule="nonzero" clip-path="url(#d62fdf6133)"><path style=" stroke:none;fill-rule:nonzero;fill:#af719f;fill-opacity:1;" d="M 546.210938 470.355469 C 544.292969 465.027344 541.859375 459.933594 538.953125 455.070312 C 532.292969 443.917969 524.203125 433.855469 515.285156 424.464844 C 512.664062 421.710938 509.644531 419.320312 506.695312 416.90625 C 501.3125 412.5 495.269531 409.121094 489.183594 405.816406 C 488.347656 405.359375 487.105469 405.25 486.96875 403.941406 C 488.132812 403.34375 489.523438 403.007812 490.328125 402.132812 C 491.90625 400.421875 493.160156 398.40625 494.539062 396.53125 C 497.8125 395.195312 501.265625 394.820312 504.695312 394.367188 C 509.472656 393.738281 513.953125 395.375 518.421875 396.476562 C 518.996094 395.269531 518.316406 394.851562 517.65625 394.59375 C 511.90625 392.34375 506.011719 391.832031 499.964844 393.222656 C 498.203125 393.628906 496.421875 393.960938 494.441406 394.367188 C 493.71875 393.035156 493.050781 391.808594 492.429688 390.667969 C 498.140625 384.324219 499.792969 381.945312 502.304688 376.710938 C 503.335938 374.558594 504.1875 372.363281 504.285156 369.953125 C 504.292969 369.789062 503.832031 369.605469 503.433594 369.324219 C 500.546875 376.792969 497.5625 384.183594 490.457031 389.050781 C 487.070312 387.960938 484 388.585938 481.277344 390.867188 C 481.128906 390.992188 480.667969 390.738281 480.183594 390.621094 C 480.242188 388.121094 480.335938 385.582031 480.355469 383.042969 C 480.425781 374.261719 479.808594 365.539062 477.566406 357.023438 C 474.542969 345.535156 470.453125 334.417969 465.230469 323.753906 C 461.691406 316.535156 457.488281 309.714844 451.855469 303.890625 C 449.449219 301.402344 446.980469 298.972656 443.824219 297.414062 C 440.230469 295.636719 436.507812 295.367188 432.6875 296.578125 C 430.875 297.152344 429.53125 298.285156 428.507812 299.90625 C 427.285156 301.84375 426.816406 303.878906 427.070312 306.15625 C 427.398438 309.097656 428.511719 311.78125 429.492188 314.53125 C 430.78125 318.121094 432.132812 321.738281 432.910156 325.460938 C 434.050781 330.917969 432.6875 335.539062 427.371094 338.472656 C 424.664062 339.960938 422.136719 341.78125 419.566406 343.515625 C 414.007812 347.269531 412.636719 354.535156 415.363281 360.035156 C 416.917969 363.164062 418.828125 366.011719 421.222656 368.546875 C 421.714844 369.070312 422.238281 369.621094 421.761719 370.617188 C 420.777344 370.628906 419.714844 370.621094 418.652344 370.660156 C 408.820312 371.019531 401.5 379.128906 403.179688 389.019531 C 403.511719 390.992188 403.890625 392.988281 404.550781 394.863281 C 406.503906 400.445312 409.203125 405.796875 414.007812 409.292969 C 421.390625 414.660156 429.554688 418.074219 439.082031 415.972656 C 442.238281 415.273438 445.441406 414.800781 448.664062 414.214844 C 449.253906 414.109375 447.34375 416.632812 447.261719 416.722656 C 446.707031 417.332031 445.777344 418.804688 446.753906 419.453125 C 447.269531 419.796875 448.839844 419.257812 449.4375 419.171875 C 450.585938 419 451.730469 418.832031 452.875 418.664062 C 452.359375 419.503906 451.898438 420.394531 451.269531 421.140625 C 449.042969 423.785156 446.824219 426.441406 444.453125 428.953125 C 441.722656 431.851562 440.3125 435.332031 439.460938 439.121094 C 437.03125 449.914062 438.484375 457.15625 444.816406 465.996094 C 446.640625 468.546875 448.902344 470.671875 451.453125 472.410156 C 453.078125 473.519531 454.945312 474.460938 456.839844 474.941406 C 462.863281 476.46875 469.558594 473.730469 473.113281 468.527344 C 473.921875 467.34375 474.65625 466.109375 475.707031 464.457031 C 476.371094 466.023438 476.929688 467.125 477.316406 468.285156 C 478.242188 471.0625 479.28125 473.777344 480.972656 476.195312 C 484.769531 481.613281 490.636719 483.496094 496.800781 481.222656 C 498.160156 480.71875 499.457031 480.03125 500.769531 479.398438 C 502.414062 478.605469 504.054688 477.816406 505.671875 476.972656 C 510.21875 474.597656 514.449219 475.183594 518.398438 478.304688 C 519.253906 478.980469 520.101562 479.6875 520.816406 480.5 C 522.253906 482.136719 523.636719 483.828125 524.980469 485.542969 C 527.335938 488.550781 529.601562 491.644531 532.570312 494.101562 C 535.988281 496.929688 540.707031 496.8125 544.058594 493.898438 C 547.316406 491.0625 548.652344 487.390625 548.617188 483.195312 C 548.582031 478.785156 547.707031 474.496094 546.210938 470.355469 Z M 460.511719 338.140625 C 464.722656 341.480469 467.792969 345.773438 469.957031 350.648438 C 471.429688 353.960938 472.8125 357.375 473.667969 360.886719 C 475 366.355469 475.996094 371.921875 476.859375 377.492188 C 477.585938 382.183594 477 386.914062 476.65625 391.390625 C 475.710938 392.492188 474.316406 392.078125 473.113281 391.675781 C 466.363281 389.421875 459.746094 386.753906 453.316406 383.699219 C 447.121094 380.753906 441.917969 376.613281 436.847656 372.027344 C 434.433594 369.839844 432.433594 367.207031 430.964844 364.226562 C 430.050781 362.375 429.492188 360.523438 430.25 358.496094 C 431.761719 356.8125 433.777344 356.617188 435.777344 356.609375 C 442.175781 356.582031 447.957031 358.394531 452.90625 362.570312 C 455.5625 364.808594 458.160156 367.152344 460.351562 369.859375 C 462.105469 372.023438 465.449219 377.359375 465.496094 377.351562 C 467.957031 376.894531 464.242188 371.476562 463.710938 370.484375 C 461.21875 365.839844 458.605469 361.257812 456.183594 356.578125 C 453.996094 352.351562 452.59375 347.824219 451.773438 343.136719 C 451.496094 341.542969 451.402344 339.875 451.523438 338.265625 C 451.691406 336.011719 453.695312 334.660156 455.84375 335.460938 C 457.507812 336.082031 459.117188 337.035156 460.511719 338.140625 Z M 459.140625 321.945312 C 459.71875 322.136719 460.128906 322.675781 460.320312 323.253906 C 460.796875 324.714844 460.324219 325.960938 459.425781 327.140625 C 459.207031 327.433594 457.992188 328.636719 458.171875 329.046875 C 457.6875 327.941406 455.65625 320.804688 459.140625 321.945312 Z M 441.167969 344.59375 C 441.816406 344.703125 442.476562 345.140625 442.988281 345.589844 C 443.777344 346.285156 443.792969 347.683594 443.101562 348.511719 C 442.476562 349.257812 441.621094 349.546875 440.714844 349.234375 C 439.210938 348.710938 438.382812 347.65625 438.527344 345.976562 C 439.101562 344.929688 440.027344 344.398438 441.167969 344.59375 Z M 440.410156 312.976562 C 440.179688 311.796875 440.195312 310.53125 440.699219 309.441406 C 441.636719 307.417969 444.148438 306.753906 445.777344 308.414062 C 447.769531 310.445312 448.90625 313.183594 449.625 315.898438 C 450.003906 317.320312 450.261719 318.773438 450.445312 320.230469 C 450.582031 321.359375 450.996094 323.019531 450.691406 324.140625 C 446.078125 322.78125 441.335938 317.765625 440.410156 312.976562 Z M 425.152344 354.640625 C 424.402344 355.441406 423.226562 355.628906 422.476562 354.6875 C 421.40625 353.339844 423.367188 352.6875 424.351562 352.535156 C 424.699219 352.480469 425.351562 352.910156 425.472656 353.261719 C 425.609375 353.644531 425.445312 354.328125 425.152344 354.640625 Z M 430.277344 347.953125 C 429.96875 348.007812 429.640625 347.984375 429.347656 347.886719 C 429.082031 347.792969 428.84375 347.632812 428.683594 347.398438 C 426.289062 343.90625 435.570312 347.042969 430.277344 347.953125 Z M 439.476562 333.277344 C 439.476562 333.066406 439.507812 332.875 439.5625 332.695312 C 439.945312 331.449219 441.558594 331.027344 442.742188 330.804688 C 443.296875 330.699219 446.402344 330.105469 446.800781 330.613281 C 447.457031 331.4375 447.054688 332.015625 446.507812 332.476562 C 445.128906 333.640625 443.707031 334.726562 441.898438 335.191406 C 440.65625 335.511719 439.476562 334.574219 439.476562 333.277344 Z M 413.332031 395.117188 C 412.855469 395.078125 412.382812 394.960938 411.953125 394.757812 C 411.632812 394.605469 411.339844 394.398438 411.09375 394.140625 C 409.753906 392.703125 410.847656 390.261719 412.835938 390.359375 C 414.824219 390.457031 416.734375 390.777344 418.46875 392.851562 C 417.09375 394.40625 415.445312 395.296875 413.332031 395.117188 Z M 419.933594 383.335938 C 419.035156 383.460938 418.105469 383.496094 417.25 383.207031 C 416.800781 383.054688 416.40625 382.820312 416.109375 382.527344 C 415.566406 381.992188 415.335938 381.25 415.679688 380.410156 C 415.972656 379.6875 416.800781 378.953125 417.554688 378.699219 C 419.3125 378.101562 421.089844 378.308594 422.527344 379.636719 C 423.160156 380.226562 423.632812 380.988281 424.535156 382.125 C 423.027344 382.796875 421.558594 383.101562 419.933594 383.335938 Z M 417.738281 405.117188 C 417.558594 405.050781 417.394531 404.90625 417.246094 404.675781 C 417.027344 404.328125 417.007812 403.890625 417.039062 403.480469 C 417.121094 402.484375 419.292969 398.808594 420.378906 400.871094 C 421.0625 402.171875 419.0625 405.636719 417.738281 405.117188 Z M 430.816406 385.175781 C 432.027344 384.878906 433.316406 384.667969 434.554688 384.746094 C 436.535156 384.871094 438.535156 385.109375 440.460938 385.570312 C 444.304688 386.484375 448.121094 387.519531 451.890625 388.699219 C 455.5 389.832031 459.773438 390.8125 462.972656 392.875 C 463.140625 392.984375 463.316406 393.105469 463.398438 393.289062 C 463.855469 394.324219 461.464844 393.8125 461.046875 393.78125 C 459.878906 393.699219 458.707031 393.617188 457.539062 393.53125 C 455.199219 393.367188 452.855469 393.203125 450.515625 393.035156 C 444.957031 392.636719 438.902344 392.808594 433.515625 391.269531 C 432.023438 390.84375 430.3125 390.117188 429.550781 388.664062 C 428.910156 387.449219 429.296875 385.546875 430.816406 385.175781 Z M 427.777344 397.753906 C 426.714844 397.148438 425.972656 395.839844 426.476562 394.632812 C 427.113281 393.109375 429.085938 393.03125 430.484375 393.132812 C 432.355469 393.265625 434.21875 393.464844 436.070312 393.722656 C 437.714844 393.953125 440.136719 393.921875 441.308594 395.101562 C 440.90625 394.695312 435.203125 396.914062 434.445312 397.148438 C 432.445312 397.765625 430.183594 398.777344 428.09375 397.910156 C 427.988281 397.867188 427.882812 397.8125 427.777344 397.753906 Z M 452.554688 406.519531 C 451.246094 407.226562 449.898438 407.859375 448.496094 408.378906 C 442.75 410.503906 436.347656 410.730469 430.46875 409.003906 C 429.347656 408.675781 428.203125 408.25 427.398438 407.402344 C 424.292969 404.136719 429.84375 401.46875 432.167969 400.375 C 434.699219 399.1875 437.410156 398.40625 440.15625 397.925781 C 445.28125 397.023438 450.558594 397.105469 455.730469 396.988281 C 457.800781 396.941406 459.871094 396.902344 461.941406 396.855469 C 462.773438 396.839844 463.597656 396.789062 464.421875 396.882812 C 464.820312 396.925781 466.085938 397.402344 466.382812 397.214844 C 461.753906 400.179688 457.421875 403.882812 452.554688 406.519531 Z M 447.265625 440.199219 C 447.277344 439.214844 447.476562 438.199219 447.800781 437.40625 C 451.609375 428.097656 460.558594 420.300781 469.648438 416.375 C 470.636719 415.949219 471.632812 415.546875 472.632812 415.152344 C 473.453125 414.824219 474.464844 414.613281 475.117188 414.003906 C 474.996094 415.609375 473.730469 417.382812 472.980469 418.777344 C 472.027344 420.542969 471 422.265625 469.929688 423.957031 C 466.910156 428.71875 463.832031 433.707031 459.71875 437.6875 C 457.636719 439.703125 455.28125 441.4375 452.667969 442.703125 C 451.546875 443.246094 450.050781 444.195312 448.789062 443.597656 C 447.539062 443.003906 447.253906 441.457031 447.265625 440.199219 Z M 445.691406 452.460938 C 444.878906 452.347656 443.929688 451.890625 443.785156 450.984375 C 443.578125 449.714844 445.425781 449.714844 446.230469 449.726562 C 448.523438 449.746094 450.023438 450.601562 449.5 451.4375 C 448.570312 452.917969 447.101562 452.65625 445.691406 452.460938 Z M 454.546875 445.75 C 454.628906 445.367188 454.773438 445.003906 454.976562 444.695312 C 455.5 443.882812 456.296875 443.296875 457.0625 442.710938 C 458.597656 441.535156 460.070312 440.28125 461.519531 439.003906 C 462.246094 438.363281 462.953125 437.699219 463.683594 437.066406 C 463.90625 436.867188 465.503906 436.148438 465.5625 436.023438 C 463.738281 439.796875 462.042969 443.339844 460.3125 446.863281 C 459.496094 448.523438 457 449.476562 455.378906 448.324219 C 454.566406 447.746094 454.351562 446.695312 454.546875 445.75 Z M 452.914062 463.40625 C 452.480469 463.632812 451.988281 463.714844 451.453125 463.554688 C 450.234375 463.191406 449.824219 461.871094 450.082031 460.730469 C 450.304688 459.746094 450.902344 458.421875 451.695312 457.765625 C 451.945312 457.558594 454.671875 456.582031 454.742188 456.835938 C 455.289062 458.847656 455.15625 460.429688 454.34375 461.894531 C 454.007812 462.492188 453.519531 463.085938 452.914062 463.40625 Z M 468.824219 448.902344 C 468.390625 449.578125 467.855469 450.167969 467.082031 450.421875 C 466.113281 450.746094 464.984375 450.378906 464.308594 449.613281 C 462.917969 448.042969 463.566406 445.070312 464.316406 443.34375 C 465.972656 439.519531 467.695312 435.71875 469.5625 431.996094 C 471.433594 428.261719 473.492188 424.628906 475.5 420.964844 C 476.097656 419.875 476.789062 418.835938 477.800781 417.183594 C 477.785156 421.539062 476.90625 425.042969 476.085938 428.507812 C 475.003906 433.085938 473.65625 437.617188 472.148438 442.078125 C 471.546875 443.863281 470.667969 445.53125 469.769531 447.183594 C 469.476562 447.726562 469.183594 448.34375 468.824219 448.902344 Z M 464.734375 465.3125 C 464.527344 465.355469 464.332031 465.375 464.152344 465.371094 C 462.265625 465.355469 461.953125 463.066406 462.78125 461.488281 C 463.65625 459.824219 465.148438 458.070312 466.738281 457.042969 C 467.167969 456.761719 467.980469 461.128906 467.941406 461.546875 C 467.777344 463.257812 466.515625 464.949219 464.734375 465.3125 Z M 490.980469 473.113281 C 490.660156 473.269531 490.316406 473.363281 490.003906 473.367188 C 488.675781 473.386719 487.914062 471.039062 489.25 470.273438 C 490.171875 469.746094 491.542969 469.914062 492.066406 470.625 C 492.773438 471.578125 491.960938 472.636719 490.980469 473.113281 Z M 499.382812 471.925781 C 499.199219 471.542969 499.371094 470.597656 499.648438 470.460938 C 500.449219 470.066406 502.042969 469.875 502.109375 471.242188 C 502.171875 472.542969 499.953125 473.113281 499.382812 471.925781 Z M 504.414062 463.25 C 503.164062 462.554688 502.628906 460.617188 503.371094 459.488281 C 503.890625 458.695312 505.449219 458.339844 506.3125 458.816406 C 507.65625 459.554688 508.15625 461.390625 507.332031 462.550781 C 506.738281 463.390625 505.28125 463.738281 504.414062 463.25 Z M 518.210938 456.726562 C 517.84375 456.613281 517.484375 456.457031 517.144531 456.277344 C 512.621094 453.859375 508.605469 448.894531 505.945312 444.609375 C 502.972656 439.816406 500.183594 434.914062 497.324219 430.050781 C 496.40625 428.484375 495.566406 426.867188 494.597656 425.332031 C 494.21875 424.734375 493.582031 424.285156 492.742188 424.582031 C 491.746094 424.933594 493.308594 427.433594 493.546875 427.820312 C 496.992188 433.410156 498 439.835938 498.476562 446.28125 C 498.738281 449.769531 497.898438 453.367188 496.570312 456.582031 C 495.542969 459.070312 493.46875 463.605469 490.441406 464.082031 C 488.972656 464.316406 487.542969 463.394531 486.605469 462.246094 C 484.3125 459.433594 482.910156 455.871094 482.152344 452.355469 C 480.546875 444.855469 479.671875 437.289062 480.859375 429.578125 C 481.859375 423.101562 482.636719 416.589844 484.296875 410.234375 C 484.476562 409.542969 484.769531 408.878906 485.082031 408.003906 C 485.851562 408.171875 486.582031 408.199219 487.191406 408.484375 C 498.339844 413.65625 507.074219 421.804688 514.707031 431.207031 C 518.886719 436.359375 521.925781 442.152344 522.761719 448.875 C 522.960938 450.488281 523.0625 452.144531 522.9375 453.761719 C 522.824219 455.207031 521.929688 456.5 520.476562 456.84375 C 519.726562 457.023438 518.949219 456.953125 518.210938 456.726562 Z M 517.320312 469.539062 C 515.636719 470.054688 514.640625 468.242188 515.472656 466.886719 C 515.738281 466.453125 516.152344 466.132812 516.574219 465.847656 C 517.039062 465.539062 522.183594 463.023438 521.507812 465.046875 C 520.804688 467.167969 519.574219 468.84375 517.320312 469.539062 Z M 531.289062 456.992188 C 532.84375 457.238281 535.15625 457.5 536.359375 458.628906 C 538.03125 460.199219 537.175781 462.472656 534.648438 461.5625 C 532.992188 460.964844 530.277344 458.890625 531.289062 456.992188 Z M 536.476562 480.589844 C 536.421875 480.578125 536.363281 480.566406 536.308594 480.554688 C 534.078125 480.042969 532.199219 477.972656 531.316406 475.945312 C 529.804688 472.464844 528.824219 468.835938 529.160156 464.226562 C 533.117188 467.269531 536.285156 469.886719 538.613281 473.339844 C 539.5625 474.746094 540.933594 477.144531 540.300781 478.914062 C 539.769531 480.402344 537.875 480.859375 536.476562 480.589844 Z M 536.476562 480.589844 "/></g></g></g><g clip-rule="nonzero" clip-path="url(#82fd939db3)"><g clip-rule="nonzero" clip-path="url(#157ccd838a)"><g clip-rule="nonzero" clip-path="url(#9d297b028d)"><path style=" stroke:none;fill-rule:nonzero;fill:#af719f;fill-opacity:1;" d="M 670.582031 414.632812 C 672.054688 410.609375 672.328125 406.449219 671.96875 402.238281 C 671.34375 394.933594 668.863281 388.429688 663.558594 383.183594 C 663.085938 382.71875 662.675781 382.183594 662.09375 381.515625 C 662.855469 381.164062 663.300781 380.828125 663.789062 380.753906 C 668.171875 380.089844 672.164062 378.289062 676.164062 376.511719 C 680.644531 374.519531 683.339844 371.121094 684.324219 366.269531 C 684.871094 363.578125 685.347656 360.902344 685.207031 358.148438 C 685 354.144531 684.789062 350.144531 684.585938 346.140625 C 684.21875 338.835938 686.90625 333 692.957031 328.789062 C 694.601562 327.644531 696.335938 326.609375 697.890625 325.355469 C 700.011719 323.648438 702.246094 321.988281 703.992188 319.933594 C 706.972656 316.421875 709.25 312.410156 709.382812 307.640625 C 709.59375 299.941406 706.457031 295.617188 697.925781 296.003906 C 691.878906 296.28125 686.015625 297.597656 680.488281 300.183594 C 678.175781 301.261719 675.84375 302.292969 673.558594 303.429688 C 667.519531 306.433594 661.5625 309.5625 655.957031 313.367188 C 645.351562 320.570312 635.941406 329.144531 627.066406 338.335938 C 621.992188 343.585938 617.636719 349.421875 613.777344 355.632812 C 613.292969 356.414062 613.128906 357.671875 611.691406 357.699219 C 611.480469 356.757812 611.355469 355.855469 611.074219 355.007812 C 610.789062 354.152344 610.4375 353.289062 609.953125 352.535156 C 608.863281 350.851562 608.933594 349.152344 609.441406 347.300781 C 611.5625 339.566406 615.328125 332.824219 621.261719 327.363281 C 622.332031 326.375 623.46875 325.460938 624.539062 324.472656 C 625.035156 324.011719 625.523438 323.472656 624.808594 322.503906 C 615.25 328.949219 609.875 338.089844 607.433594 349.367188 C 606.332031 349.355469 605.460938 349.34375 604.71875 349.335938 C 604.519531 349.078125 604.339844 348.84375 604.164062 348.621094 L 603.757812 345.09375 L 603.746094 345.089844 C 602.769531 335.019531 598.402344 326.742188 590.234375 320.527344 C 589.558594 320.015625 588.691406 319.757812 587.851562 319.355469 C 587.480469 320.988281 588.605469 321.503906 589.429688 322.101562 C 592.085938 324.03125 594.558594 326.179688 596.316406 328.9375 C 599.148438 333.378906 601.402344 338.097656 602.136719 343.433594 C 602.222656 344.046875 602.226562 344.699219 602.304688 345.335938 L 602.582031 348.582031 C 602.007812 349.4375 601.3125 350.183594 600.328125 350.667969 C 598.925781 351.355469 598.464844 353.289062 596.546875 353.703125 C 595.828125 352.066406 595.132812 350.589844 594.527344 349.078125 C 591.808594 342.289062 588.519531 335.785156 584.347656 329.785156 C 580.402344 324.109375 576.273438 318.546875 572.019531 313.09375 C 566.972656 306.621094 561.300781 300.707031 554.933594 295.511719 C 550.425781 291.835938 545.890625 288.171875 541.140625 284.820312 C 536.367188 281.453125 531.167969 278.808594 525.460938 277.289062 C 522.59375 276.523438 519.742188 276.226562 516.851562 277.117188 C 515.40625 277.558594 514.269531 278.363281 513.390625 279.625 C 510.976562 283.089844 510.121094 286.898438 510.722656 291.046875 C 511.535156 296.632812 513.941406 301.445312 517.835938 305.519531 C 519.84375 307.625 521.941406 309.648438 523.875 311.820312 C 527.613281 316.015625 528.984375 320.992188 528.222656 326.527344 C 527.972656 328.324219 527.476562 330.089844 527.03125 331.851562 C 526.273438 334.855469 525.40625 337.832031 524.695312 340.84375 C 523.804688 344.601562 523.59375 348.40625 524.148438 352.242188 C 524.609375 355.433594 525.894531 358.171875 528.445312 360.207031 C 530.007812 361.453125 531.550781 362.75 533.25 363.789062 C 535.726562 365.3125 538.347656 366.605469 540.875 368.050781 C 541.445312 368.378906 541.878906 368.933594 542.378906 369.386719 C 541.960938 369.847656 541.757812 370.175781 541.46875 370.371094 C 533.414062 375.890625 529.625 383.96875 527.867188 393.210938 C 526.789062 398.871094 528.070312 404.101562 531.371094 408.773438 C 532.839844 410.84375 534.484375 412.816406 536.214844 414.671875 C 536.929688 415.441406 537.671875 416.179688 538.445312 416.882812 C 542.890625 420.933594 548.335938 423.691406 554.308594 424.527344 C 559.453125 425.25 564.640625 425.863281 569.71875 424.53125 C 577.59375 422.464844 583.863281 417.988281 588.957031 411.746094 C 591.027344 409.207031 593.007812 406.59375 595.085938 404.0625 C 595.394531 403.6875 596.007812 403.566406 596.246094 403.445312 C 597.257812 402.933594 597.890625 404.96875 598.441406 405.46875 C 599.300781 406.25 600.625 406.335938 601.648438 405.820312 C 602.378906 405.449219 603.074219 404.996094 603.710938 404.476562 C 603.996094 404.246094 604.296875 403.917969 604.21875 403.558594 C 606.425781 408.5 609.066406 413.578125 612.09375 418.058594 C 616.941406 425.25 623.597656 430.1875 632.21875 432 C 637.242188 433.058594 642.355469 433.011719 647.433594 432.199219 C 648.683594 432 649.925781 431.632812 651.113281 431.179688 C 657.53125 428.734375 663.003906 424.921875 667.574219 419.773438 C 668.929688 418.242188 669.886719 416.539062 670.582031 414.632812 Z M 676.550781 367.695312 C 677.164062 368.105469 677.4375 368.742188 677.101562 369.503906 C 676.609375 370.621094 675.527344 371.023438 674.507812 370.417969 C 673.953125 369.980469 673.625 369.410156 673.972656 368.652344 C 674.453125 367.609375 675.691406 367.117188 676.550781 367.695312 Z M 525.3125 302.558594 C 525.015625 302.851562 524.328125 302.8125 523.820312 302.789062 C 523.488281 302.773438 523.164062 302.523438 522.335938 302.15625 C 521.933594 301.503906 521.253906 300.484375 520.679688 299.410156 C 520.566406 299.199219 520.757812 298.691406 520.964844 298.46875 C 521.179688 298.242188 521.617188 298.039062 521.90625 298.09375 C 523.644531 298.429688 524.726562 299.652344 525.523438 301.105469 C 525.722656 301.46875 525.601562 302.277344 525.3125 302.558594 Z M 533.617188 294.484375 C 532.28125 295.507812 530.8125 295.335938 529.507812 294.546875 C 526.875 292.949219 524.296875 291.25 521.753906 289.5 C 520.867188 288.890625 520.046875 288.105469 519.410156 287.238281 C 519.042969 286.738281 518.808594 285.773438 519.050781 285.28125 C 519.308594 284.769531 520.214844 284.28125 520.820312 284.296875 C 522.257812 284.335938 523.714844 284.558594 525.105469 284.933594 C 527.207031 285.496094 529.257812 286.246094 531.507812 286.976562 C 532.183594 287.890625 533.046875 288.839844 533.664062 289.933594 C 534.734375 291.832031 534.667969 293.679688 533.617188 294.484375 Z M 563.84375 317.148438 C 567.433594 318.441406 570.789062 320.324219 573.484375 323.164062 C 580.417969 330.46875 586.535156 338.308594 590.167969 347.863281 C 591.332031 350.917969 592.769531 353.871094 594.066406 356.878906 C 594.859375 358.707031 595.625 360.550781 595.65625 362.5625 C 594.519531 363.019531 593.808594 362.386719 593.101562 361.894531 C 582.027344 354.179688 571.78125 345.523438 562.996094 335.222656 C 559.183594 330.753906 555.289062 325.597656 555.507812 319.417969 C 555.640625 315.582031 561.496094 316.300781 563.84375 317.148438 Z M 573.492188 350.460938 C 573.195312 350.554688 572.796875 350.488281 572.472656 350.339844 C 570.109375 349.261719 567.757812 348.125 565.308594 347.253906 C 560.710938 345.625 556.648438 342.875 552.613281 340.164062 C 549.144531 337.835938 545.671875 334.804688 545.207031 330.386719 C 545.019531 328.59375 545.445312 327.347656 547.164062 326.71875 C 548.480469 326.234375 549.921875 326.238281 551.269531 326.570312 C 553.171875 327.035156 555.101562 327.785156 556.257812 329.589844 C 558.738281 333.453125 561.699219 336.980469 564.84375 340.320312 C 566.453125 342.03125 568.113281 343.691406 569.789062 345.339844 C 570.628906 346.164062 571.472656 346.980469 572.3125 347.804688 C 572.824219 348.304688 573.796875 348.859375 573.921875 349.617188 C 574 350.109375 573.796875 350.367188 573.492188 350.460938 Z M 536.46875 308.601562 C 534.320312 308.953125 532.589844 307.832031 532 305.804688 C 531.644531 304.570312 532.804688 303.140625 534.011719 303.328125 C 536.078125 303.648438 537.519531 305.128906 537.761719 307.203125 C 537.78125 307.367188 537.699219 307.542969 537.625 307.882812 C 537.3125 308.089844 536.917969 308.527344 536.46875 308.601562 Z M 542.15625 297.671875 C 542.257812 296.707031 542.808594 295.996094 543.78125 295.761719 C 545.425781 295.363281 546.792969 296.109375 547.582031 297.980469 C 547.917969 298.777344 547.964844 299.59375 547.75 300.257812 C 547.421875 301.273438 546.476562 301.9375 545.007812 301.652344 C 543.15625 301.292969 541.960938 299.554688 542.15625 297.671875 Z M 538.824219 321.042969 C 537.773438 322.023438 535.945312 321.878906 535 320.742188 C 534.132812 319.699219 534.144531 317.949219 535.207031 317.429688 C 535.792969 317.136719 536.554688 317.191406 537.261719 317.457031 C 538.863281 318.058594 540.21875 319.746094 538.824219 321.042969 Z M 543.695312 312.570312 C 543.453125 310.554688 544.671875 308.992188 546.722656 308.824219 C 547.4375 308.765625 548.214844 308.742188 548.878906 308.960938 C 551.417969 309.792969 553.761719 311.105469 555.78125 312.855469 C 557.707031 314.523438 554.941406 315.691406 554.128906 317.09375 C 553.347656 318.441406 553.246094 320.03125 553.5 321.542969 C 553.640625 322.40625 553.964844 323.308594 553.332031 324.117188 C 552.191406 324.445312 551.679688 323.550781 551.046875 322.96875 C 549.445312 321.492188 547.824219 320.023438 546.320312 318.449219 C 544.769531 316.824219 543.964844 314.804688 543.695312 312.570312 Z M 536.175781 332.785156 C 535.351562 332.007812 535.359375 330.40625 536.195312 329.433594 C 536.738281 328.800781 537.898438 328.785156 538.550781 329.402344 C 539.382812 330.1875 539.585938 331.496094 538.992188 332.238281 C 538.300781 333.101562 536.820312 333.390625 536.175781 332.785156 Z M 532.957031 344.996094 C 532.929688 344.976562 532.898438 344.957031 532.871094 344.933594 C 532.621094 344.738281 532.453125 344.453125 532.328125 344.164062 C 532.191406 343.839844 532.09375 343.488281 532.128906 343.140625 C 532.242188 342.027344 533.507812 341.777344 534.253906 342.464844 C 534.605469 342.792969 534.867188 343.40625 534.851562 343.882812 C 534.824219 344.792969 533.769531 345.519531 532.957031 344.996094 Z M 532.082031 355.675781 C 531.261719 355.667969 530.789062 355.121094 530.558594 354.367188 C 530.328125 353.609375 530.445312 352.859375 531.171875 352.527344 C 532.667969 351.835938 534.167969 353.542969 533.886719 354.703125 C 533.75 355.253906 533.214844 355.683594 532.082031 355.675781 Z M 544.242188 347.695312 C 543.949219 347.839844 543.652344 348 543.324219 348.023438 C 542.257812 348.109375 541.214844 346.84375 540.796875 345.988281 C 540.4375 345.261719 540.296875 344.445312 540.160156 343.644531 C 539.597656 340.367188 545.144531 340.230469 547.179688 340.75 C 550.105469 341.496094 552.882812 342.820312 556.25 345.507812 C 555.976562 345.289062 554.296875 345.65625 553.90625 345.683594 C 553.121094 345.738281 552.335938 345.792969 551.550781 345.863281 C 548.988281 346.089844 546.5625 346.53125 544.242188 347.695312 Z M 541.011719 361.214844 C 540.972656 361.25 540.925781 361.285156 540.875 361.3125 C 540.097656 361.804688 539.246094 361.359375 539.226562 360.46875 C 539.222656 360.152344 539.792969 359.558594 540.109375 359.550781 C 541.058594 359.527344 541.753906 360.589844 541.011719 361.214844 Z M 546.4375 357.578125 C 545.5625 356.714844 544.800781 355.609375 544.34375 354.472656 C 543.320312 351.917969 544.359375 349.796875 546.933594 348.808594 C 547.609375 348.550781 548.3125 348.324219 549.027344 348.21875 C 554.679688 347.371094 560.359375 347.367188 565.660156 349.582031 C 570.5 351.605469 575.425781 353.472656 580.046875 356.0625 C 584.335938 358.46875 588.289062 361.347656 592.339844 364.097656 C 592.761719 364.382812 593.027344 364.902344 593.304688 365.242188 C 593.15625 367.503906 589.449219 367.605469 587.777344 367.816406 C 585.386719 368.121094 582.96875 368.136719 580.570312 367.996094 C 575.902344 367.726562 571.242188 366.859375 566.652344 366.253906 C 561.5625 365.582031 556.839844 363.722656 552.1875 361.640625 C 549.988281 360.65625 548.113281 359.234375 546.4375 357.578125 Z M 537.507812 391.96875 C 537.304688 391.96875 537.101562 391.96875 536.90625 391.917969 C 536.503906 391.8125 536.1875 391.527344 535.929688 391.214844 C 535.484375 390.679688 535.164062 390.015625 535.164062 389.320312 C 535.167969 388.363281 535.863281 387.625 536.730469 387.308594 C 538.367188 386.710938 539.707031 387.878906 540.15625 389.425781 C 540.660156 391.160156 538.960938 391.949219 537.507812 391.96875 Z M 545.972656 383.054688 C 545.296875 382.15625 544.945312 381.144531 545.335938 379.992188 C 545.976562 378.105469 547.167969 377.164062 548.890625 377.199219 C 550.472656 377.230469 551.714844 378.085938 552.113281 379.613281 C 552.300781 380.335938 552.148438 381.074219 551.78125 381.734375 C 550.652344 383.773438 547.496094 385.097656 545.972656 383.054688 Z M 543.566406 403.417969 C 542.585938 402.847656 542.253906 401.691406 542.792969 400.71875 C 543.183594 400.011719 544.253906 399.804688 545.085938 400.277344 C 546.195312 400.910156 546.785156 402.09375 546.363281 402.832031 C 545.886719 403.660156 544.488281 403.953125 543.566406 403.417969 Z M 544.167969 414.371094 C 543.167969 414.21875 542.453125 412.464844 543.167969 411.789062 C 543.605469 411.371094 544.449219 411.15625 545.070312 411.222656 C 545.929688 411.3125 546.308594 412.53125 545.902344 413.402344 C 545.574219 414.179688 544.925781 414.488281 544.167969 414.371094 Z M 554.714844 411.011719 C 553.484375 410.457031 553.035156 409.179688 553.628906 407.902344 C 554.058594 406.980469 555.382812 406.550781 556.375 407.015625 C 557.515625 407.558594 558.039062 409.066406 557.472656 410.191406 C 557 411.128906 555.789062 411.488281 554.714844 411.011719 Z M 561.957031 398.671875 C 560.535156 399.140625 559.070312 399.46875 557.585938 399.652344 C 556.304688 399.808594 554.515625 400.117188 553.3125 399.539062 C 550.808594 398.339844 552.039062 393.820312 553.078125 392.035156 C 554.53125 389.527344 556.953125 387.757812 559.0625 385.839844 C 559.972656 385.015625 560.867188 384.167969 561.929688 383.179688 C 560.761719 381.515625 559.746094 380.066406 558.871094 378.816406 C 558.679688 376.632812 559.703125 375.378906 561.300781 374.695312 C 562.617188 374.132812 564.066406 373.699219 565.484375 373.601562 C 573.007812 373.058594 580.234375 374.238281 587.636719 375.511719 C 588.433594 375.648438 589.667969 375.585938 590.34375 376.082031 C 591.457031 376.902344 589.832031 378.277344 589.109375 378.851562 C 584.457031 382.546875 579.765625 386.195312 575.132812 389.914062 C 570.972656 393.25 567.121094 396.976562 561.957031 398.671875 Z M 558.65625 419.277344 C 558.359375 418.984375 558.335938 418.421875 558.222656 418.097656 C 558.796875 417.214844 559.460938 417.132812 560.179688 417.378906 C 560.882812 417.617188 561.261719 418.519531 560.933594 419.058594 C 560.492188 419.785156 559.328125 419.957031 558.65625 419.277344 Z M 577.65625 413.34375 C 575.265625 415.027344 568.765625 416.546875 567.429688 412.757812 C 567.160156 411.980469 567.207031 411.132812 567.320312 410.316406 C 567.777344 406.964844 569.238281 403.835938 571.410156 401.25 C 577.144531 394.433594 583.335938 388 589.613281 381.683594 C 590.101562 381.195312 590.757812 380.882812 591.707031 380.234375 C 592.296875 382.089844 592.675781 384.015625 592.75 385.964844 C 592.953125 391.078125 590.867188 396.355469 588.550781 400.828125 C 585.96875 405.808594 582.207031 410.140625 577.65625 413.34375 Z M 675.492188 357.351562 C 676.117188 356.898438 676.828125 356.632812 677.441406 357.195312 C 677.765625 357.496094 677.816406 358.105469 677.945312 358.457031 C 677.402344 359.519531 676.6875 360.015625 675.683594 359.875 C 675.398438 359.835938 675.015625 359.527344 674.914062 359.253906 C 674.640625 358.515625 674.820312 357.839844 675.492188 357.351562 Z M 667.011719 372.886719 C 667.234375 372.964844 667.246094 373.65625 667.40625 374.277344 C 666.703125 374.304688 666.167969 374.476562 665.816406 374.292969 C 665.394531 374.082031 665.09375 373.472656 665.640625 373.097656 C 666 372.851562 666.617188 372.75 667.011719 372.886719 Z M 696.796875 319.132812 C 695.59375 320.515625 694.285156 321.660156 691.992188 320.898438 C 691.894531 320.210938 691.691406 319.785156 691.824219 319.546875 C 692.863281 317.671875 694.640625 317.078125 696.546875 316.8125 C 697.441406 317.597656 697.480469 318.347656 696.796875 319.132812 Z M 691.171875 303.980469 C 693.890625 303.753906 696.613281 303.554688 699.339844 303.464844 C 700.703125 303.421875 701.007812 303.839844 701.789062 306.007812 C 698.195312 309.117188 693.890625 310.898438 689.292969 312.078125 C 688.777344 312.210938 688.203125 312.128906 687.65625 312.113281 C 686.132812 312.074219 684.910156 310.472656 685.414062 309.078125 C 686.402344 306.347656 688.011719 304.238281 691.171875 303.980469 Z M 679.421875 323.859375 C 678.894531 322.675781 679.5 321.78125 680.1875 320.914062 C 680.894531 320.019531 681.820312 319.40625 682.953125 319.476562 C 683.589844 319.515625 684.449219 319.835938 684.753906 320.320312 C 685.070312 320.8125 685.058594 321.761719 684.796875 322.332031 C 683.808594 324.464844 682.664062 324.738281 679.421875 323.859375 Z M 679.289062 332.410156 C 680.214844 333.203125 680.417969 334.191406 679.917969 335.242188 C 679.417969 336.300781 678.425781 336.777344 677.3125 336.617188 C 676.691406 336.527344 676.019531 336.128906 675.566406 335.671875 C 675.066406 335.171875 675.339844 333.785156 675.90625 333.257812 C 676.875 332.351562 677.988281 331.984375 679.289062 332.410156 Z M 663.691406 353.195312 C 665.546875 352.914062 667.21875 353.640625 668.722656 354.734375 C 669.757812 355.480469 670.152344 356.828125 669.640625 358.089844 C 669.011719 359.644531 668.121094 360.945312 666.050781 361.347656 C 663.328125 358.867188 659.96875 357.304688 656.179688 356.632812 C 655.71875 356.550781 655.316406 356.160156 654.890625 355.882812 C 655.179688 355.476562 655.421875 354.875 655.785156 354.792969 C 658.402344 354.183594 661.035156 353.597656 663.691406 353.195312 Z M 673.929688 347.445312 C 673 346.859375 672.738281 345.722656 673.292969 344.695312 C 673.765625 343.8125 674.753906 343.34375 675.445312 343.671875 C 676.464844 344.15625 676.835938 345.683594 676.222656 346.867188 C 675.851562 347.582031 674.628906 347.890625 673.929688 347.445312 Z M 667.46875 340.578125 C 668.179688 343.761719 666.882812 346.261719 664.398438 348.082031 C 662.664062 349.351562 660.65625 350.296875 658.683594 351.191406 C 649.90625 355.183594 645.460938 356.335938 634.796875 357.378906 C 643.246094 351.246094 651.441406 346.753906 657.78125 339.761719 C 661.042969 338.449219 664.316406 337.71875 667.46875 340.578125 Z M 673.035156 310.363281 C 673.496094 310.144531 674.070312 310.117188 674.597656 310.078125 C 676.246094 309.964844 677.285156 311.242188 676.878906 312.867188 C 676.792969 313.210938 676.625 313.53125 676.496094 313.863281 C 676.269531 314.136719 676.074219 314.449219 675.808594 314.679688 C 674.832031 315.53125 673.761719 316.199219 672.40625 315.671875 C 671.542969 315.335938 670.746094 314.734375 670.78125 313.75 C 670.832031 312.222656 671.636719 311.03125 673.035156 310.363281 Z M 670.890625 322.539062 C 672.667969 324.074219 672.851562 325.695312 671.925781 327.574219 C 670.941406 329.570312 669.710938 331.316406 667.789062 332.527344 C 665.65625 333.875 663.507812 335.179688 661.402344 336.285156 C 660.398438 335.550781 660.515625 334.761719 660.832031 334.136719 C 662.339844 331.152344 661.769531 328.542969 659.605469 326.148438 C 659.519531 326.050781 659.601562 325.800781 659.609375 325.285156 C 662.984375 322.925781 666.644531 321.324219 670.890625 322.539062 Z M 612.265625 365.289062 C 614.019531 361.074219 616.097656 358.121094 618.214844 355.191406 C 618.957031 354.160156 619.800781 353.195312 620.460938 352.113281 C 625.6875 343.574219 633.023438 337.117188 641.082031 331.445312 C 643.417969 329.804688 646.222656 328.753906 648.921875 327.722656 C 651.710938 326.65625 654.632812 326.851562 657.488281 327.703125 C 658.929688 328.136719 659.941406 329.605469 659.636719 331.050781 C 659.195312 333.179688 658.703125 335.28125 657.199219 337.027344 C 655.417969 339.089844 653.714844 341.183594 651.566406 342.910156 C 641.886719 350.691406 631.523438 357.347656 620.113281 362.285156 C 617.828125 363.273438 615.703125 364.777344 612.265625 365.289062 Z M 612.628906 368.394531 C 614.808594 367.324219 616.0625 366.65625 617.359375 366.078125 C 625.878906 362.277344 634.789062 359.769531 643.945312 358.09375 C 649.105469 357.152344 654.078125 358.128906 659 359.515625 C 660.199219 359.855469 661.351562 360.511719 662.402344 361.203125 C 664.480469 362.566406 665.015625 365.546875 663.371094 367.417969 C 662.320312 368.609375 660.941406 369.621094 659.527344 370.363281 C 654.933594 372.773438 649.9375 373.820312 644.804688 373.980469 C 637.707031 374.203125 630.628906 373.699219 623.621094 372.566406 C 620.0625 371.988281 616.632812 370.882812 612.628906 368.394531 Z M 627.796875 420.21875 C 624.746094 420.402344 622.039062 419.59375 619.878906 417.3125 C 615.789062 412.996094 612.808594 408.03125 611.519531 402.203125 C 610.851562 399.191406 610.519531 396.085938 610.246094 393.003906 C 609.890625 388.957031 610.203125 387.445312 612.023438 381.726562 C 612.761719 382.390625 613.253906 382.667969 613.511719 383.089844 C 618.289062 390.835938 623.710938 398.175781 628.003906 406.230469 C 629.6875 409.386719 630.425781 412.683594 630.5 416.195312 C 630.507812 416.738281 630.457031 417.285156 630.386719 417.828125 C 630.21875 419.144531 629.179688 420.136719 627.796875 420.21875 Z M 631.890625 401.140625 C 628.128906 396.472656 624.21875 391.925781 620.351562 387.347656 C 618.945312 385.683594 617.417969 384.121094 616.03125 382.441406 C 615.359375 381.625 614.878906 380.648438 613.835938 378.980469 C 618.328125 378.679688 621.945312 379.121094 625.554688 379.15625 C 629.75 379.199219 633.902344 379.742188 637.945312 380.863281 C 639.671875 381.339844 641.335938 382.140625 642.925781 382.992188 C 643.671875 383.390625 644.269531 384.191406 644.75 384.933594 C 645.460938 386.019531 645.207031 387.5625 644.246094 388.425781 C 643.710938 388.902344 643.03125 389.21875 642.457031 389.660156 C 642.046875 389.972656 641.703125 390.371094 641.429688 390.632812 C 641.195312 392.261719 642.148438 393.160156 642.9375 394.152344 C 644.292969 395.851562 645.679688 397.53125 646.910156 399.316406 C 648.207031 401.195312 648.417969 403.378906 648.226562 405.605469 C 648.015625 408.058594 646.511719 409.148438 644.136719 408.679688 C 639.105469 407.695312 635.109375 405.128906 631.890625 401.140625 Z M 635.839844 426.746094 C 635.492188 426.492188 635.21875 425.90625 635.214844 425.46875 C 635.210938 424.871094 636.246094 424.4375 636.878906 424.710938 C 637.1875 424.84375 637.523438 425.042969 637.707031 425.3125 C 637.886719 425.574219 637.882812 425.960938 637.980469 426.375 C 637.464844 427.195312 636.664062 427.351562 635.839844 426.746094 Z M 641.03125 419.429688 C 640.09375 418.886719 639.6875 417.59375 640.171875 416.6875 C 640.746094 415.617188 642.226562 415.140625 643.386719 415.652344 C 644.296875 416.050781 644.648438 417.335938 644.140625 418.386719 C 643.5625 419.585938 642.132812 420.066406 641.03125 419.429688 Z M 655.210938 394.753906 C 653.425781 394.953125 652.152344 393.90625 651.304688 392.347656 C 650.742188 391.316406 650.785156 390.105469 651.433594 389.285156 C 652.238281 388.269531 653.734375 387.757812 654.832031 388.179688 C 656.675781 388.886719 657.671875 390.328125 658.117188 392.179688 C 658.191406 392.496094 658.003906 392.875 657.878906 393.527344 C 657.101562 393.902344 656.191406 394.644531 655.210938 394.753906 Z M 653 414.234375 C 652.269531 413.769531 652.109375 412.59375 652.671875 411.851562 C 653.429688 410.851562 654.542969 410.574219 655.472656 411.152344 C 656.199219 411.601562 656.347656 412.707031 655.792969 413.523438 C 655.128906 414.5 653.902344 414.8125 653 414.234375 Z M 652.390625 424.660156 C 652.105469 424.792969 651.710938 424.699219 651.363281 424.707031 C 651.144531 424.453125 650.816406 424.230469 650.722656 423.933594 C 650.339844 422.710938 650.613281 422.046875 651.457031 421.835938 C 652.265625 421.632812 652.816406 422.023438 653.230469 422.605469 C 653.71875 423.296875 653.347656 424.210938 652.390625 424.660156 Z M 665.148438 403.320312 C 664.285156 404.585938 662.625 404.9375 661.441406 404.105469 C 660.636719 403.539062 660.40625 402.097656 660.984375 401.238281 C 662.007812 399.714844 663.875 399.34375 665.074219 400.425781 C 665.816406 401.089844 665.847656 402.296875 665.148438 403.320312 Z M 665.148438 403.320312 "/></g></g></g></g></svg>